<svg width="593" height="769" viewBox="0 0 593 769" fill="none" xmlns="http://www.w3.org/2000/svg">
<g clip-path="url(#clip0)">
<path d="M7.5 724.763V139.892L26.5058 155.544L27.4714 743.594L7.5 724.763Z" stroke="#F78D22" stroke-width="15"/>
<path d="M204.668 48.754C176.774 66.08 155.638 94.0231 152.82 127.389L126.174 126.983L127.334 121.571C140.192 61.5658 181.665 25.5798 229.446 12.7431C277.491 -0.164404 331.583 10.4359 369.026 43.6134L370.693 45.0901L372.895 45.4182C417.825 52.1098 459.41 77.8046 480.182 123.125L482.187 127.5H487H546.083L565.719 145.5H562.107L547.303 130.697L545.107 128.5H542H494H484.394L486.724 137.819C487.428 140.635 488.112 143.258 488.787 145.842C490.099 150.871 491.373 155.753 492.679 161.627L493.984 167.5H500H585.5V761.5H57.5V167.5H199H205.242L206.375 161.362C217.804 99.4545 259.49 62.5448 307.985 49.2324L331.605 42.7485L308.404 34.8959C273.469 23.0714 234.648 30.1317 204.668 48.754ZM356.445 67.8419L354.358 65.6389L351.326 65.5071C301.785 63.3531 251.697 93.681 233.775 157.987L231.124 167.5H241H459H469.406L466.115 157.628C463.065 148.477 459.992 140.276 456.894 133.046L454.945 128.5H450H387.865C381.96 105.566 374.276 86.6638 356.445 67.8419ZM440 127.5H454.014L446.24 115.84C437.576 102.843 426.767 93.1438 415.027 85.6725L397.205 74.3314L403.885 94.3717C406.902 103.422 409.751 111.996 411.646 121.471L412.851 127.5H419H440Z" stroke="#F78D22" stroke-width="15"/>
</g>
<defs>
<clipPath id="clip0">
<rect width="593" height="769" fill="white"/>
</clipPath>
</defs>
</svg>
