<svg width="593" height="769" viewBox="0 0 593 769" fill="none" xmlns="http://www.w3.org/2000/svg">
<g clip-path="url(#clip0)">
<path d="M13 722.39V151.547L21.0101 158.143L21.9504 730.829L13 722.39Z" stroke="black" stroke-width="26"/>
<path d="M478.658 133H479.85L481.388 139.153C482.12 142.081 482.817 144.752 483.497 147.354C484.793 152.319 486.025 157.037 487.31 162.82L489.572 173H500H580V756H63V173H199H209.82L211.784 162.36C222.794 102.721 262.783 67.3443 309.441 54.5362L350.383 43.2974L310.168 29.6862C273.446 17.2571 232.923 24.7284 201.766 44.0819C174.171 61.2224 152.516 88.6391 147.908 121.814L132.96 121.586C145.623 64.4609 185.206 30.3237 230.873 18.0548C277.301 5.58171 329.444 15.889 365.379 47.7299L368.267 50.2896L372.085 50.8582C415.496 57.3237 455.311 82.0612 475.182 125.416L478.658 133ZM360.437 64.0593L356.82 60.2407L351.565 60.0123C299.427 57.7454 247.074 89.7804 228.477 156.51L223.882 173H241H459H477.037L471.333 155.889C468.537 147.501 465.71 139.863 462.846 133H464.291L460.279 126.982L458.572 123H457.624L450.817 112.789C441.665 99.0609 430.263 88.8493 417.979 81.0324L387.088 61.3744L398.667 96.1109C401.696 105.198 404.435 113.46 406.252 122.549L406.343 123H392.097C386.175 101.353 378.044 82.6445 360.437 64.0593Z" stroke="black" stroke-width="26"/>
</g>
<defs>
<clipPath id="clip0">
<rect width="593" height="769" fill="white"/>
</clipPath>
</defs>
</svg>
